<svg width="226" height="26" viewBox="0 0 226 26" fill="none" xmlns="http://www.w3.org/2000/svg">
<path d="M10.79 21H14.42V0.149998H9.14C3.83 0.149998 1.04 2.88 1.04 6.9C1.04 10.11 2.57 12 5.3 13.95L0.56 21H4.49L9.77 13.11L7.94 11.88C5.72 10.38 4.64 9.21 4.64 6.69C4.64 4.47 6.2 2.97 9.17 2.97H10.79V21ZM80.78 21.3C82.43 21.3 83.6 21 84.47 20.37V17.46C83.57 18.09 82.49 18.48 80.99 18.48C78.44 18.48 77.39 16.5 77.39 13.38C77.39 10.11 78.68 8.43 81.02 8.43C82.4 8.43 83.75 8.91 84.47 9.36V6.33C83.72 5.91 82.4 5.61 80.63 5.61C76.07 5.61 73.7 8.88 73.7 13.47C73.7 18.51 76.01 21.3 80.78 21.3ZM58.46 19.98V17.07C57.35 17.82 55.49 18.48 53.75 18.48C51.14 18.48 50.15 17.25 50 14.73H58.61V12.84C58.61 7.59 56.3 5.61 52.73 5.61C48.38 5.61 46.31 8.94 46.31 13.5C46.31 18.75 48.89 21.3 53.45 21.3C55.73 21.3 57.41 20.7 58.46 19.98ZM69.86 21H73.91L68.18 12.99L73.22 5.91H69.62L64.58 12.99V5.91H61.01V21H64.58V13.71L69.86 21ZM45.44 18.18H43.85V5.91H33.44V7.2C33.44 10.89 33.2 15.66 31.94 18.18H30.83V24.45H34.13V21H42.14V24.45H45.44V18.18ZM25.76 5.91V11.88H20.99V5.91H17.42V21H20.99V14.7H25.76V21H29.33V5.91H25.76ZM52.67 8.43C54.44 8.43 54.98 9.9 54.98 11.79V12.09H50C50.09 9.69 50.96 8.43 52.67 8.43ZM40.28 18.18H35.24C36.23 15.9 36.5 11.79 36.5 9.18V8.73H40.28V18.18ZM92.873 0.149998V21H96.503V2.97H102.983V21H106.613V0.149998H92.873ZM112.902 5.91H109.602V25.35H113.172V19.23C114.072 20.58 115.392 21.3 116.922 21.3C120.402 21.3 122.802 18.51 122.802 13.44C122.802 8.4 120.462 5.61 117.102 5.61C115.422 5.61 114.042 6.39 113.082 7.86L112.902 5.91ZM116.022 18.48C114.132 18.48 113.172 16.95 113.172 13.47C113.172 9.96 114.192 8.43 116.202 8.43C118.152 8.43 119.112 9.96 119.112 13.44C119.112 16.95 118.092 18.48 116.022 18.48ZM136.321 10.71C136.321 7.05 134.461 5.67 130.681 5.67C128.311 5.67 126.451 6.42 125.371 7.05V10.02C126.331 9.3 128.431 8.52 130.261 8.52C131.971 8.52 132.751 9.12 132.751 10.74V11.58H132.181C126.721 11.58 124.291 13.38 124.291 16.44C124.291 19.5 126.151 21.21 128.911 21.21C131.011 21.21 131.911 20.52 132.601 19.8H132.751C132.781 20.19 132.901 20.7 133.021 21H136.501C136.381 19.77 136.321 18.54 136.321 17.31V10.71ZM132.751 17.4C132.301 18.06 131.461 18.6 130.201 18.6C128.701 18.6 127.951 17.76 127.951 16.47C127.951 14.76 129.181 14.13 132.241 14.13H132.751V17.4ZM148.041 21H152.091L146.361 12.99L151.401 5.91H147.801L142.761 12.99V5.91H139.191V21H142.761V13.71L148.041 21ZM164.06 8.73V5.91H152.09V8.73H156.29V21H159.86V8.73H164.06ZM166.174 5.91V21H169.354L174.814 11.67V21H178.264V5.91H175.084L169.624 15.24V5.91H166.174ZM190.112 21H194.162L188.432 12.99L193.472 5.91H189.872L184.832 12.99V5.91H181.262V21H184.832V13.71L190.112 21ZM197.303 25.65C200.633 25.65 201.863 23.28 202.883 20.19L207.593 5.91H204.143L200.813 17.25L197.483 5.91H193.733L198.923 21.66C198.533 22.38 197.963 22.83 196.973 22.83C196.313 22.83 195.743 22.62 195.353 22.23V25.14C195.353 25.14 195.893 25.65 197.303 25.65ZM221.817 21H225.297L225.237 5.91H220.347L217.077 15.96L214.137 5.91H208.947V21H211.977V9.72L215.247 21H218.157L221.817 9.72V21Z" fill="white"/>
</svg>
